<svg width="46" height="26" viewBox="0 0 46 26" fill="none" xmlns="http://www.w3.org/2000/svg">
<rect x="0.75" y="0.770996" width="44.5" height="24.5" rx="2.75" fill="white" stroke="#ACB4BA" stroke-width="0.5"/>
<path fill-rule="evenodd" clip-rule="evenodd" d="M12.4187 9.24745C12.9601 9.29312 13.5016 8.97342 13.8399 8.56809C14.1727 8.15135 14.3926 7.59188 14.3362 7.021C13.8569 7.04383 13.2647 7.34069 12.9263 7.75744C12.6161 8.1171 12.3511 8.6994 12.4187 9.24745ZM18.8593 16.6004V7.70035H22.1585C23.8617 7.70035 25.0517 8.88779 25.0517 10.6233C25.0517 12.3588 23.8391 13.5576 22.1134 13.5576H20.2241V16.6004H18.8593ZM14.3306 9.35591C13.8536 9.32812 13.4184 9.50111 13.0668 9.64084C12.8406 9.73076 12.649 9.80691 12.5033 9.80691C12.3397 9.80691 12.1403 9.72669 11.9163 9.63662C11.6228 9.51861 11.2873 9.38369 10.9355 9.39016C10.129 9.40158 9.3789 9.864 8.9672 10.6004C8.12125 12.0733 8.74726 14.2541 9.56501 15.453C9.96543 16.0467 10.4448 16.6975 11.0764 16.6747C11.3543 16.664 11.5542 16.5782 11.7611 16.4893C11.9993 16.387 12.2467 16.2807 12.633 16.2807C13.0059 16.2807 13.2425 16.3842 13.4696 16.4836C13.6856 16.5781 13.893 16.6688 14.2008 16.6632C14.855 16.6518 15.2667 16.0695 15.6672 15.4758C16.0993 14.8386 16.2892 14.2167 16.318 14.1223C16.3196 14.1169 16.3208 14.1132 16.3214 14.1114C16.3207 14.1107 16.3153 14.1082 16.3059 14.1038C16.1615 14.0369 15.0574 13.5253 15.0468 12.1532C15.0362 11.0016 15.9225 10.4182 16.062 10.3263C16.0705 10.3207 16.0763 10.317 16.0789 10.315C15.5149 9.47008 14.6351 9.37874 14.3306 9.35591ZM27.5445 16.6689C28.4017 16.6689 29.1969 16.2294 29.5578 15.5329H29.586V16.6004H30.8493V12.1704C30.8493 10.8859 29.8342 10.0581 28.272 10.0581C26.8226 10.0581 25.751 10.8973 25.7116 12.0505H26.941C27.0425 11.5024 27.5445 11.1428 28.2325 11.1428C29.0672 11.1428 29.5353 11.5367 29.5353 12.2617V12.7527L27.8321 12.8554C26.2473 12.9525 25.3901 13.609 25.3901 14.7508C25.3901 15.904 26.2755 16.6689 27.5445 16.6689ZM27.911 15.6128C27.1834 15.6128 26.721 15.2589 26.721 14.7165C26.721 14.1571 27.1665 13.8317 28.0181 13.7803L29.5352 13.6832V14.1856C29.5352 15.0191 28.8359 15.6128 27.911 15.6128ZM35.0396 16.9487C34.4925 18.5072 33.8665 19.021 32.5355 19.021C32.434 19.021 32.0956 19.0096 32.0167 18.9867V17.9192C32.1013 17.9306 32.31 17.942 32.4171 17.942C33.0206 17.942 33.3589 17.6851 33.5676 17.0172L33.6917 16.6233L31.3794 10.1437H32.8062L34.4136 15.4016H34.4418L36.0491 10.1437H37.4364L35.0396 16.9487ZM20.224 8.86495H21.7974C22.9818 8.86495 23.6585 9.50434 23.6585 10.629C23.6585 11.7536 22.9818 12.3987 21.7918 12.3987H20.224V8.86495Z" fill="black"/>
</svg>
