<svg width="46" height="26" viewBox="0 0 46 26" fill="none" xmlns="http://www.w3.org/2000/svg">
<rect x="0.75" y="0.75" width="44.5" height="24.5" rx="2.75" fill="white" stroke="#ACB4BA" stroke-width="0.5"/>
<path d="M20.2632 13.9042H18.9806V13.4009C18.9806 12.7462 19.3546 12.5589 19.6772 12.5589C20.0332 12.5589 20.3106 12.7169 20.3106 12.7169L20.7472 11.7189C20.7472 11.7189 20.3046 11.4296 19.4999 11.4296C18.5952 11.4296 17.5659 11.9396 17.5659 13.5402V13.9042H15.4186V13.4009C15.4186 12.7462 15.7926 12.5589 16.1146 12.5589C16.2979 12.5589 16.5446 12.6015 16.7486 12.7169L17.1853 11.7189C16.9246 11.5656 16.5059 11.4296 15.9379 11.4296C15.0333 11.4296 14.004 11.9396 14.004 13.5402V13.9042H13.1826V14.9962H14.004V18.8541H15.4186V14.9962H17.5659V18.8541H18.9806V14.9962H20.2632V13.9042Z" fill="#060809"/>
<path fill-rule="evenodd" clip-rule="evenodd" d="M10.4269 13.7587C9.61154 13.7587 8.67288 14.1434 8.16356 14.5494L8.62888 15.5287C9.03755 15.1547 9.69821 14.8354 10.2942 14.8354C10.8602 14.8354 11.1729 15.0247 11.1729 15.4054C11.1729 15.6627 10.9655 15.792 10.5735 15.8427C9.11088 16.0334 7.96289 16.4367 7.96289 17.5647C7.96289 18.4587 8.59955 19 9.59421 19C10.3035 19 10.9355 18.6053 11.2362 18.0847V18.854H12.5588V15.6307C12.5588 14.2994 11.6335 13.7587 10.4269 13.7587ZM9.93487 17.966C9.56287 17.966 9.37754 17.7833 9.37754 17.4813C9.37754 16.9227 10.0029 16.7314 11.1442 16.6107C11.1442 17.358 10.6389 17.966 9.93487 17.966Z" fill="#060809"/>
<path d="M23.7095 13.9042V18.8541H25.1254V16.4695C25.1254 15.3355 25.8114 15.0028 26.2901 15.0028C26.4768 15.0028 26.7288 15.0568 26.8954 15.1815L27.1534 13.8729C26.9348 13.7795 26.7061 13.7589 26.5188 13.7589C25.7908 13.7589 25.3334 14.0815 25.0314 14.7362V13.9042H23.7095Z" fill="#060809"/>
<path d="M32.1175 14.6283C32.4088 14.2016 32.9682 13.759 33.7168 13.759C34.6215 13.759 35.3701 14.3203 35.3701 15.433V18.8543H33.9555V15.8803C33.9555 15.225 33.5608 14.953 33.1868 14.953C32.7188 14.953 32.2508 15.381 32.2508 16.3063V18.8543H30.8362V15.8903C30.8362 15.215 30.4642 14.953 30.0595 14.953C29.6122 14.953 29.1335 15.391 29.1335 16.3063V18.8543H27.7169V13.9043H29.0815V14.653C29.3209 14.175 29.8389 13.759 30.5875 13.759C31.2735 13.759 31.8468 14.077 32.1175 14.6283Z" fill="#060809"/>
<path d="M22.5212 18.8543H21.1079V13.9044H22.5212V18.8543Z" fill="#060809"/>
<path fill-rule="evenodd" clip-rule="evenodd" d="M29.3533 7C25.532 7 22.126 9.65264 21.1594 13.0633H22.5447C23.352 10.5233 26.0927 8.29399 29.3533 8.29399C33.3166 8.29399 36.7419 11.3113 36.7419 16.0086C36.7419 17.0632 36.6052 18.0139 36.3465 18.8539H37.6905L37.7039 18.8079C37.9239 17.9412 38.0359 16.9999 38.0359 16.0086C38.0359 10.77 34.2186 7 29.3533 7Z" fill="#0FA0EA"/>
</svg>
