<svg width="46" height="26" viewBox="0 0 46 26" fill="none" xmlns="http://www.w3.org/2000/svg">
<rect x="0.75" y="0.722168" width="44.5" height="24.5" rx="2.75" fill="white" stroke="#ACB4BA" stroke-width="0.5"/>
<path fill-rule="evenodd" clip-rule="evenodd" d="M10.6143 8.97217L7.00391 16.9619H11.3261L11.8619 15.688H13.0867L13.6225 16.9619H18.38V15.9896L18.8039 16.9619H21.2649L21.6888 15.9691V16.9619H31.5831L32.7862 15.7211L33.9127 16.9619L38.9946 16.9722L35.3728 12.9893L38.9946 8.97217H33.9915L32.8204 10.19L31.7293 8.97217H20.9656L20.0413 11.0344L19.0954 8.97217H14.7822V9.91136L14.3024 8.97217H10.6143ZM25.3887 10.1064H31.0704L32.8082 11.9836L34.602 10.1064H36.3398L33.6994 12.9879L36.3398 15.8362H34.5232L32.7854 13.9373L30.9825 15.8362H25.3887V10.1064ZM26.7922 12.3401V11.2935V11.2925H30.3374L31.8844 12.9662L30.2689 14.6491H26.7922V13.5066H29.8918V12.3401H26.7922ZM11.4506 10.1065H13.5575L15.9522 15.5244V10.1065H18.2602L20.1099 13.9911L21.8146 10.1065H24.111V15.8397H22.7137L22.7023 11.3472L20.6651 15.8397H19.4152L17.3666 11.3472V15.8397H14.492L13.947 14.5544H11.0028L10.4589 15.8386H8.91875L11.4506 10.1065ZM11.5059 13.3658L12.4759 11.0762L13.4448 13.3658H11.5059Z" fill="#1F72CD"/>
</svg>
