<svg width="46" height="26" viewBox="0 0 46 26" fill="none" xmlns="http://www.w3.org/2000/svg">
<rect x="0.75" y="0.722168" width="44.5" height="24.5" rx="2.75" fill="white" stroke="#ACB4BA" stroke-width="0.5"/>
<path fill-rule="evenodd" clip-rule="evenodd" d="M38.0506 10.1368C39.3398 10.1368 40.0488 10.7105 40.0488 11.7941C40.1133 12.6228 39.5332 13.324 38.7597 13.4515L40.5 15.81H39.1464L37.6639 13.5152H37.535V15.81H36.4392V10.1368H38.0506ZM37.5349 12.75H37.8572C38.5662 12.75 38.8885 12.4313 38.8885 11.8576C38.8885 11.3476 38.5662 11.0289 37.8572 11.0289H37.5349V12.75ZM32.6367 15.8104H35.7306V14.8543H33.7325V13.3244H35.6662V12.3682H33.7325V11.0934H35.7306V10.1372H32.6367V15.8104V15.8104ZM29.4132 13.9618L27.9307 10.1372H26.7705L29.1554 15.9379H29.7355L32.1204 10.1372H30.9602L29.4132 13.9618V13.9618ZM16.3289 13.0062C16.3289 14.5997 17.618 15.9384 19.2295 15.9384C19.7451 15.9384 20.1963 15.8109 20.6475 15.6197V14.3448C20.3252 14.7272 19.874 14.9822 19.3584 14.9822C18.3271 14.9822 17.4891 14.2173 17.4891 13.1974V13.0699C17.4247 12.05 18.2626 11.1576 19.2939 11.0938C19.8096 11.0938 20.3252 11.3488 20.6475 11.7313V10.4564C20.2608 10.2014 19.7451 10.1377 19.2939 10.1377C17.618 10.0102 16.3289 11.3488 16.3289 13.0062V13.0062ZM14.3302 12.3047C13.6856 12.0497 13.4923 11.9222 13.4923 11.6035C13.5567 11.221 13.879 10.9023 14.2657 10.966C14.588 10.966 14.9103 11.1573 15.1681 11.4123L15.7483 10.6473C15.2971 10.2649 14.7169 10.0099 14.1368 10.0099C13.2344 9.94614 12.461 10.6473 12.3965 11.5397V11.6035C12.3965 12.3684 12.7188 12.8146 13.7501 13.1333C14.0079 13.1971 14.2657 13.3246 14.5236 13.4521C14.7169 13.5795 14.8459 13.7708 14.8459 14.0258C14.8459 14.472 14.4591 14.8544 14.0724 14.8544H14.0079C13.4923 14.8544 13.0411 14.5357 12.8477 14.0895L12.1387 14.7907C12.5254 15.4919 13.2989 15.8743 14.0724 15.8743C15.1037 15.9381 15.9416 15.1731 16.0061 14.1532V13.962C15.9416 13.1971 15.6193 12.8146 14.3302 12.3047V12.3047ZM10.592 15.8106H11.6878V10.1374H10.592V15.8106V15.8106ZM5.5 10.1368H7.11142H7.4337C8.98067 10.2005 10.2053 11.4754 10.1409 13.0053C10.1409 13.8339 9.75415 14.5989 9.10958 15.1726C8.52947 15.6188 7.82044 15.8737 7.11142 15.81H5.5V10.1368ZM6.91799 14.8542C7.43364 14.918 8.01375 14.7267 8.40049 14.408C8.78723 14.0256 8.9806 13.5156 8.9806 12.9419C8.9806 12.432 8.78723 11.922 8.40049 11.5396C8.01375 11.2208 7.43364 11.0296 6.91799 11.0933H6.5957V14.8542H6.91799Z" fill="black"/>
<path fill-rule="evenodd" clip-rule="evenodd" d="M23.9347 10.0059C22.3233 10.0059 20.9697 11.2807 20.9697 12.9381C20.9697 14.5317 22.2589 15.8703 23.9347 15.934C25.6106 15.9978 26.8997 14.6592 26.9642 13.0018C26.8997 11.3445 25.6106 10.0059 23.9347 10.0059V10.0059Z" fill="#FD6020"/>
</svg>
