<svg width="46" height="26" viewBox="0 0 46 26" fill="none" xmlns="http://www.w3.org/2000/svg">
<rect x="0.75" y="0.729492" width="44.5" height="24.5" rx="2.75" fill="white" stroke="#ACB4BA" stroke-width="0.5"/>
<path d="M24.6098 20.4794C28.6724 20.499 32.3805 17.1357 32.3805 13.0444C32.3805 8.57057 28.6724 5.47782 24.6098 5.47949H21.1133C17.0023 5.47782 13.6182 8.57141 13.6182 13.0444C13.6182 17.1366 17.0023 20.499 21.1133 20.4794H24.6098Z" fill="#0079BE"/>
<path d="M21.13 6.09945C17.3731 6.1007 14.3292 9.17341 14.3279 12.9659C14.3292 16.7579 17.3731 19.8306 21.13 19.8319C24.8874 19.8306 27.9326 16.7579 27.933 12.9659C27.9326 9.17341 24.8879 6.1007 21.13 6.09945ZM16.8186 12.9659C16.8179 12.089 17.0816 11.2323 17.5754 10.5078C18.0693 9.78319 18.7702 9.22444 19.5866 8.90455V17.0268C18.7701 16.7071 18.0691 16.1485 17.5753 15.4239C17.0814 14.6994 16.8177 13.8427 16.8186 12.9659ZM22.6731 17.0284V8.90413C23.4901 9.22357 24.1916 9.78227 24.6858 10.5071C25.18 11.2319 25.4438 12.089 25.4427 12.9663C25.4436 13.8435 25.1798 14.7006 24.6856 15.4253C24.1914 16.1501 23.49 16.7089 22.6731 17.0284Z" fill="white"/>
</svg>
