<svg width="46" height="26" viewBox="0 0 46 26" fill="none" xmlns="http://www.w3.org/2000/svg">
<rect x="0.75" y="0.729492" width="44.5" height="24.5" rx="2.75" fill="white" stroke="#ACB4BA" stroke-width="0.5"/>
<path fill-rule="evenodd" clip-rule="evenodd" d="M21.8696 16.366V12.8445H23.6871C24.4319 12.8445 25.0605 12.5949 25.573 12.1027L25.696 11.9779C26.6321 10.9589 26.5706 9.37141 25.573 8.42863C25.0742 7.92951 24.3909 7.65915 23.6871 7.67302H20.7695V16.366H21.8696ZM21.8697 11.7769V8.74056H23.7149C24.1112 8.74056 24.4871 8.89307 24.7673 9.17036C25.3619 9.75267 25.3755 10.7232 24.8015 11.3263C24.5213 11.6244 24.1249 11.7907 23.7149 11.7769H21.8697Z" fill="#3C4043"/>
<path fill-rule="evenodd" clip-rule="evenodd" d="M30.8275 10.8826C30.3561 10.4459 29.7138 10.2241 28.9007 10.2241C27.8552 10.2241 27.0694 10.6123 26.5501 11.3818L27.5204 11.9987C27.8757 11.4719 28.3609 11.2085 28.9758 11.2085C29.3653 11.2085 29.7411 11.354 30.0349 11.6175C30.3219 11.867 30.4859 12.2275 30.4859 12.6088V12.8653C30.0622 12.6296 29.5293 12.5048 28.8733 12.5048C28.108 12.5048 27.4931 12.685 27.0353 13.0524C26.5775 13.4198 26.3451 13.9051 26.3451 14.5221C26.3315 15.0836 26.5706 15.6174 26.9943 15.9778C27.4247 16.366 27.9714 16.5601 28.6137 16.5601C29.3721 16.5601 29.9734 16.2205 30.4312 15.5411H30.4791V16.366H31.5313V12.6989C31.5313 11.9294 31.299 11.3194 30.8275 10.8826ZM27.8418 15.2707C27.6162 15.1044 27.4795 14.834 27.4795 14.5429C27.4795 14.217 27.6299 13.9467 27.9238 13.7318C28.2245 13.5169 28.6003 13.406 29.0445 13.406C29.6596 13.399 30.138 13.5377 30.4797 13.815C30.4797 14.2864 30.2952 14.6954 29.933 15.042C29.6049 15.3747 29.1607 15.5619 28.696 15.5619C28.3885 15.5688 28.0878 15.4648 27.8418 15.2707Z" fill="#3C4043"/>
<path d="M33.8955 18.9795L37.5716 10.4182H36.3759L34.6745 14.6884H34.654L32.9116 10.4182H31.7158L34.1279 15.9848L32.7613 18.9795H33.8955Z" fill="#3C4043"/>
<path d="M18.0716 12.0819C18.0716 11.7422 18.0443 11.4026 17.9896 11.0698H13.3501V12.99H16.0081C15.8988 13.607 15.5434 14.1616 15.0241 14.5082V15.756H16.6094C17.5387 14.8895 18.0716 13.607 18.0716 12.0819Z" fill="#4285F4"/>
<path d="M13.3503 16.9622C14.6759 16.9622 15.7963 16.5185 16.6094 15.756L15.0241 14.5082C14.58 14.8132 14.0131 14.9865 13.3503 14.9865C12.0657 14.9865 10.9793 14.1061 10.5898 12.9276H8.95671V14.217C9.79033 15.9016 11.4917 16.9622 13.3503 16.9622Z" fill="#34A853"/>
<path d="M10.5898 12.9276C10.3848 12.3107 10.3849 11.6383 10.59 11.0144V9.73191H8.95664C8.25274 11.1391 8.25274 12.8029 8.95664 14.2101L10.5898 12.9276Z" fill="#FBBC04"/>
<path d="M13.3503 8.95548C14.0541 8.94162 14.7305 9.21197 15.2362 9.70416L16.6437 8.27612C15.7486 7.43039 14.5734 6.96593 13.3503 6.97979C11.4917 6.97979 9.79025 8.04737 8.95664 9.73191L10.5898 11.0213C10.9793 9.83587 12.0657 8.95548 13.3503 8.95548Z" fill="#EA4335"/>
</svg>
