<svg width="46" height="26" viewBox="0 0 46 26" fill="none" xmlns="http://www.w3.org/2000/svg">
<rect x="0.75" y="0.729492" width="44.5" height="24.5" rx="2.75" fill="white" stroke="#ACB4BA" stroke-width="0.5"/>
<path d="M28.0684 13.2831C28.611 13.2949 29.1567 13.2591 29.6972 13.3017C30.2445 13.4038 30.3764 14.2324 29.8902 14.5037C29.5584 14.6825 29.1643 14.5703 28.8046 14.6018H28.0684V13.2831ZM30.0109 11.7904C30.1315 12.216 29.7213 12.598 29.3115 12.5394H28.0684C28.0771 12.1381 28.0514 11.7026 28.081 11.3224C28.579 11.3364 29.0816 11.2938 29.5766 11.3447C29.7894 11.3982 29.9674 11.573 30.0109 11.7904ZM33.0025 5.47995C33.0256 6.2926 33.0058 7.14821 33.0125 7.97735C33.0109 11.3483 33.0157 14.7192 33.0098 18.0904C32.988 19.3537 31.8684 20.4515 30.6138 20.4767C29.3579 20.4818 28.1019 20.4775 26.8459 20.4789V15.3827C28.2144 15.3756 29.5836 15.397 30.9515 15.372C31.5861 15.3322 32.2811 14.9135 32.3107 14.2151C32.3854 13.5138 31.7241 13.0287 31.0963 12.9521C30.855 12.9458 30.8621 12.8817 31.0963 12.8538C31.6951 12.7243 32.1653 12.1046 31.9892 11.484C31.839 10.8312 31.1175 10.5785 30.5174 10.5798C29.2938 10.5715 28.0699 10.5786 26.8462 10.5762C26.8541 9.62481 26.8297 8.67239 26.8593 7.72168C26.9563 6.48113 28.1041 5.45808 29.3411 5.48027C30.5617 5.48009 31.7821 5.48 33.0025 5.47995Z" fill="url(#paint0_linear_9204_79044)"/>
<path d="M13.0179 7.85019C13.0492 6.58883 14.1736 5.50007 15.4266 5.48164C16.6778 5.47778 17.9291 5.48108 19.1803 5.47997C19.1769 9.7002 19.1871 13.9209 19.1752 18.1409C19.127 19.3869 18.0148 20.4549 16.7755 20.477C15.5219 20.4815 14.2682 20.4776 13.0146 20.4789V15.2108C14.2323 15.4985 15.5092 15.621 16.7514 15.4302C17.4939 15.3107 18.3064 14.946 18.5578 14.1757C18.7428 13.5167 18.6386 12.8232 18.6661 12.1469V10.5762H16.5163C16.5067 11.615 16.5361 12.6556 16.5008 13.6932C16.4428 14.3309 15.8113 14.7361 15.2098 14.7145C14.4639 14.7224 12.9857 14.1739 12.9857 14.1739C12.982 12.2276 13.0074 9.79 13.0179 7.85019Z" fill="url(#paint1_linear_9204_79044)"/>
<path d="M19.982 11.2098C19.8689 11.2338 19.9593 10.8243 19.9303 10.669C19.9381 9.68691 19.9142 8.70374 19.9435 7.72234C20.0402 6.47654 21.1968 5.45094 22.4388 5.4801H26.0963C26.0929 9.70033 26.1031 13.921 26.0912 18.141C26.0429 19.387 24.9307 20.455 23.6913 20.4771C22.4377 20.4818 21.184 20.4779 19.9303 20.4791V14.7072C20.7865 15.4097 21.9502 15.5191 23.0169 15.521C23.821 15.5207 24.6205 15.3967 25.4014 15.2113V14.1538C24.5214 14.5925 23.4868 14.8711 22.5112 14.6191C21.8307 14.4497 21.3367 13.792 21.3477 13.0897C21.2688 12.3593 21.6969 11.5882 22.4147 11.3711C23.3058 11.0921 24.277 11.3054 25.1123 11.6681C25.2913 11.7618 25.473 11.8781 25.4014 11.5789V10.7478C24.0044 10.4154 22.5176 10.2931 21.1141 10.6547C20.7078 10.7693 20.312 10.943 19.982 11.2098Z" fill="url(#paint2_linear_9204_79044)"/>
<defs>
<linearGradient id="paint0_linear_9204_79044" x1="12.8543" y1="12.6586" x2="32.8826" y2="12.6586" gradientUnits="userSpaceOnUse">
<stop stop-color="#58B03A"/>
<stop offset="1" stop-color="#55B330"/>
</linearGradient>
<linearGradient id="paint1_linear_9204_79044" x1="12.6558" y1="13.1231" x2="32.6846" y2="13.1231" gradientUnits="userSpaceOnUse">
<stop stop-color="#0F6EB6"/>
<stop offset="1" stop-color="#006DBA"/>
</linearGradient>
<linearGradient id="paint2_linear_9204_79044" x1="19.9213" y1="12.8042" x2="26.0952" y2="12.8042" gradientUnits="userSpaceOnUse">
<stop stop-color="#DE0D3D"/>
<stop offset="1" stop-color="#E30138"/>
</linearGradient>
</defs>
</svg>
