<svg width="46" height="26" viewBox="0 0 46 26" fill="none" xmlns="http://www.w3.org/2000/svg">
<rect x="0.75" y="0.75" width="44.5" height="24.5" rx="2.75" fill="white" stroke="#ACB4BA" stroke-width="0.5"/>
<path fill-rule="evenodd" clip-rule="evenodd" d="M22.9992 19.0983C21.7295 20.194 20.0825 20.8555 18.2828 20.8555C14.2671 20.8555 11.0117 17.5623 11.0117 13.5C11.0117 9.43769 14.2671 6.14453 18.2828 6.14453C20.0825 6.14453 21.7295 6.80599 22.9992 7.90169C24.2689 6.80599 25.9159 6.14453 27.7156 6.14453C31.7313 6.14453 34.9867 9.43769 34.9867 13.5C34.9867 17.5623 31.7313 20.8555 27.7156 20.8555C25.9159 20.8555 24.2689 20.194 22.9992 19.0983Z" fill="#ED0006"/>
<path fill-rule="evenodd" clip-rule="evenodd" d="M22.998 19.0977C24.561 17.7486 25.552 15.7414 25.552 13.5C25.552 11.2586 24.561 9.25143 22.998 7.90231C24.2678 6.80624 25.9151 6.14453 27.7152 6.14453C31.7309 6.14453 34.9862 9.43769 34.9862 13.5C34.9862 17.5623 31.7309 20.8555 27.7152 20.8555C25.9151 20.8555 24.2678 20.1938 22.998 19.0977Z" fill="#F9A000"/>
<path fill-rule="evenodd" clip-rule="evenodd" d="M22.999 19.0985C24.5623 17.7493 25.5536 15.7419 25.5536 13.5002C25.5536 11.2585 24.5623 9.25098 22.999 7.90186C21.4356 9.25098 20.4443 11.2585 20.4443 13.5002C20.4443 15.7419 21.4356 17.7493 22.999 19.0985Z" fill="#FF5E00"/>
</svg>
