<svg width="46" height="26" viewBox="0 0 46 26" fill="none" xmlns="http://www.w3.org/2000/svg">
<rect x="0.75" y="0.729492" width="44.5" height="24.5" rx="2.75" fill="white" stroke="#ACB4BA" stroke-width="0.5"/>
<path fill-rule="evenodd" clip-rule="evenodd" d="M11.5921 8.98032H9.25683C9.09702 8.98032 8.96111 9.09645 8.93619 9.25413L7.99171 15.2417C7.97294 15.3598 8.06444 15.4663 8.1843 15.4663H9.29916C9.45896 15.4663 9.59487 15.3502 9.61979 15.1922L9.87453 13.5773C9.8991 13.4191 10.0353 13.3032 10.1948 13.3032H10.9341C12.4724 13.3032 13.3601 12.5588 13.5921 11.0839C13.6965 10.4387 13.5965 9.93163 13.2942 9.57645C12.9624 9.18667 12.3736 8.98032 11.5921 8.98032ZM11.8615 11.1672C11.7338 12.0051 11.0935 12.0051 10.4745 12.0051H10.1221L10.3693 10.4402C10.384 10.3457 10.4659 10.2761 10.5615 10.2761H10.7231C11.1448 10.2761 11.5426 10.2761 11.7482 10.5164C11.8706 10.6599 11.9082 10.8728 11.8615 11.1672ZM18.5726 11.1403H17.4543C17.359 11.1403 17.2767 11.21 17.262 11.3046L17.2126 11.6173L17.1343 11.504C16.8923 11.1526 16.3525 11.0353 15.8136 11.0353C14.5778 11.0353 13.5224 11.9711 13.3168 13.2839C13.21 13.9386 13.3618 14.5648 13.7333 15.0015C14.0742 15.403 14.5618 15.5703 15.1419 15.5703C16.1376 15.5703 16.6898 14.9301 16.6898 14.9301L16.6399 15.2409C16.6211 15.3597 16.7126 15.4662 16.8317 15.4662H17.8391C17.9993 15.4662 18.1344 15.35 18.1597 15.1921L18.7641 11.365C18.7833 11.2473 18.6921 11.1403 18.5726 11.1403ZM17.0138 13.3166C16.9059 13.9554 16.3988 14.3842 15.7522 14.3842C15.4274 14.3842 15.1678 14.2801 15.0013 14.0827C14.836 13.8868 14.7731 13.6078 14.8257 13.2972C14.9265 12.6638 15.4421 12.221 16.079 12.221C16.3964 12.221 16.6546 12.3264 16.8246 12.5255C16.995 12.7266 17.0626 13.0072 17.0138 13.3166ZM23.4046 11.1402H24.5284C24.6858 11.1402 24.7776 11.3167 24.6882 11.4457L20.9506 16.8401C20.8901 16.9275 20.7904 16.9795 20.6839 16.9795H19.5615C19.4035 16.9795 19.3112 16.8016 19.4027 16.6722L20.5665 15.0296L19.3287 11.3975C19.2859 11.2713 19.3791 11.1402 19.5135 11.1402H20.6177C20.7612 11.1402 20.8877 11.2343 20.9291 11.3716L21.586 13.5653L23.136 11.2825C23.1967 11.1934 23.2975 11.1402 23.4046 11.1402Z" fill="#253B80"/>
<path fill-rule="evenodd" clip-rule="evenodd" d="M35.5893 15.2411L36.5477 9.14413C36.5624 9.04949 36.6444 8.97981 36.7397 8.97949H37.8186C37.9378 8.97949 38.0293 9.0863 38.0105 9.20448L37.0654 15.1917C37.0407 15.3497 36.9048 15.4658 36.7447 15.4658H35.7812C35.662 15.4658 35.5705 15.3593 35.5893 15.2411ZM28.2496 8.97981H25.9139C25.7545 8.97981 25.6186 9.09594 25.5936 9.25362L24.6492 15.2411C24.6304 15.3593 24.7219 15.4658 24.8412 15.4658H26.0396C26.151 15.4658 26.2462 15.3846 26.2636 15.274L26.5316 13.5768C26.5563 13.4186 26.6925 13.3027 26.8519 13.3027H27.5908C29.1294 13.3027 30.017 12.5583 30.2491 11.0834C30.3539 10.4381 30.2532 9.93112 29.9511 9.57594C29.6194 9.18615 29.0311 8.97981 28.2496 8.97981ZM28.519 11.1667C28.3916 12.0045 27.7514 12.0045 27.1319 12.0045H26.7799L27.0275 10.4397C27.0422 10.3452 27.1234 10.2756 27.2193 10.2756H27.3808C27.8022 10.2756 28.2004 10.2756 28.4059 10.5159C28.5285 10.6593 28.5658 10.8723 28.519 11.1667ZM35.2295 11.1398H34.112C34.0159 11.1398 33.9344 11.2095 33.92 11.3041L33.8706 11.6168L33.792 11.5035C33.55 11.1521 33.0105 11.0347 32.4716 11.0347C31.2358 11.0347 30.1807 11.9706 29.9751 13.2834C29.8686 13.9381 30.0199 14.5643 30.3914 15.001C30.7328 15.4025 31.2198 15.5698 31.7999 15.5698C32.7956 15.5698 33.3477 14.9296 33.3477 14.9296L33.2979 15.2404C33.2791 15.3592 33.3706 15.4657 33.4905 15.4657H34.4974C34.6569 15.4657 34.7928 15.3495 34.8177 15.1915L35.4225 11.3645C35.4409 11.2468 35.3495 11.1398 35.2295 11.1398ZM33.6708 13.3161C33.5635 13.9549 33.0558 14.3837 32.4091 14.3837C32.085 14.3837 31.8249 14.2796 31.6582 14.0822C31.4929 13.8863 31.4308 13.6073 31.4828 13.2967C31.5841 12.6632 32.099 12.2205 32.7359 12.2205C33.0535 12.2205 33.3115 12.3259 33.4817 12.525C33.6527 12.7261 33.7203 13.0067 33.6708 13.3161Z" fill="#179BD7"/>
</svg>
