<svg width="46" height="26" viewBox="0 0 46 26" fill="none" xmlns="http://www.w3.org/2000/svg">
<rect x="0.75" y="0.75" width="44.5" height="24.5" rx="2.75" fill="white" stroke="#ACB4BA" stroke-width="0.5"/>
<path d="M15.7066 5.50084H21.6915C22.527 5.50084 23.0466 6.18179 22.8517 7.02001L20.0653 18.9832C19.8686 19.8185 19.0322 20.5 18.1961 20.5H12.2118C11.3775 20.5 10.8567 19.8185 11.0516 18.9832L13.8392 7.02001C14.0341 6.18179 14.8701 5.50084 15.7066 5.50084Z" fill="#E21836"/>
<path d="M21.1932 5.5H28.0757C28.911 5.5 28.5343 6.18096 28.3378 7.01917L25.5519 18.9823C25.3564 19.8176 25.4174 20.4992 24.5803 20.4992H17.6978C16.8607 20.4992 16.3427 19.8176 16.5394 18.9823L19.3252 7.01917C19.523 6.18096 20.3573 5.5 21.1932 5.5Z" fill="#00447C"/>
<path d="M27.8028 5.5H33.7878C34.6244 5.5 35.144 6.18096 34.9475 7.01917L32.1615 18.9823C31.9649 19.8176 31.1278 20.4992 30.2914 20.4992H24.3092C23.4721 20.4992 22.953 19.8176 23.149 18.9823L25.9354 7.01917C26.1303 6.18096 26.9658 5.5 27.8028 5.5Z" fill="#007B84"/>
<path d="M17.2693 9.33382C16.6539 9.34009 16.4721 9.33382 16.4141 9.32011C16.3917 9.42616 15.9764 11.342 15.9753 11.3436C15.8858 11.7312 15.8208 12.0075 15.5998 12.1859C15.4743 12.2896 15.3279 12.3396 15.1581 12.3396C14.8851 12.3396 14.7261 12.2041 14.6994 11.9471L14.6943 11.8588C14.6943 11.8588 14.7775 11.3396 14.7775 11.3367C14.7775 11.3367 15.2133 9.59086 15.2914 9.36008C15.2955 9.34695 15.2966 9.34009 15.2977 9.33382C14.4492 9.34126 14.2988 9.33382 14.2885 9.32011C14.2828 9.33893 14.2618 9.44717 14.2618 9.44717L13.8167 11.4149L13.7785 11.5818L13.7045 12.1277C13.7045 12.2896 13.7363 12.4218 13.7996 12.5335C14.0024 12.8878 14.5808 12.9409 14.908 12.9409C15.3296 12.9409 15.7251 12.8514 15.9923 12.6878C16.4562 12.4137 16.5776 11.9853 16.6858 11.6046L16.736 11.4092C16.736 11.4092 17.185 9.59596 17.2613 9.36008C17.2642 9.34695 17.2654 9.34009 17.2693 9.33382ZM18.7971 10.7966C18.6888 10.7966 18.491 10.8229 18.3133 10.9099C18.2489 10.9431 18.1879 10.9813 18.1236 11.0194L18.1816 10.8097L18.1498 10.7744C17.773 10.8507 17.6887 10.8609 17.3406 10.9099L17.3115 10.9293C17.2711 11.2644 17.2352 11.5164 17.0853 12.175C17.0283 12.4177 16.9691 12.6628 16.9097 12.905L16.9258 12.9358C17.2824 12.9169 17.3907 12.9169 17.7007 12.922L17.7258 12.8948C17.7651 12.693 17.7702 12.6457 17.8575 12.2371C17.8985 12.0434 17.984 11.6177 18.0261 11.4662C18.1036 11.4303 18.18 11.395 18.253 11.395C18.4267 11.395 18.4055 11.5466 18.3988 11.6069C18.3914 11.7083 18.3281 12.0395 18.2632 12.3238L18.2198 12.5073C18.1896 12.6428 18.1565 12.7746 18.1263 12.9089L18.1395 12.9358C18.491 12.9169 18.5982 12.9169 18.8985 12.922L18.9338 12.8948C18.988 12.5797 19.0039 12.4953 19.1002 12.0366L19.1486 11.8258C19.2427 11.4132 19.29 11.204 19.2188 11.0336C19.1435 10.8427 18.9629 10.7966 18.7971 10.7966ZM20.5037 11.2285C20.3169 11.2644 20.1977 11.2883 20.0792 11.3038C19.9618 11.3226 19.8473 11.3397 19.6667 11.3648L19.6524 11.3778L19.6393 11.3881C19.6204 11.5226 19.6073 11.6389 19.5824 11.7756C19.5612 11.9169 19.5287 12.0775 19.4757 12.3083C19.4347 12.485 19.4136 12.5465 19.3902 12.6087C19.3675 12.6708 19.3424 12.7312 19.2963 12.905L19.3071 12.921L19.3161 12.9357C19.4849 12.9277 19.5954 12.922 19.7088 12.921C19.8222 12.9169 19.9396 12.921 20.1214 12.922L20.1373 12.909L20.1544 12.8947C20.1806 12.7381 20.1846 12.6959 20.2006 12.6195C20.2165 12.5375 20.2439 12.424 20.3112 12.1209C20.343 11.9785 20.3784 11.8365 20.4114 11.6913C20.4457 11.5465 20.4816 11.404 20.5157 11.2616L20.5106 11.2444L20.5037 11.2285ZM20.5077 10.6462C20.3379 10.5459 20.0399 10.5777 19.8393 10.7162C19.6393 10.8518 19.6165 11.0444 19.7858 11.1459C19.9527 11.2434 20.2518 11.2143 20.4507 11.0747C20.6502 10.9362 20.6752 10.7454 20.5077 10.6462ZM21.5346 12.9671C21.8782 12.9671 22.2303 12.8725 22.4954 12.5915C22.6993 12.3636 22.7928 12.0246 22.8252 11.885C22.9307 11.4223 22.8485 11.2063 22.7454 11.0747C22.5887 10.8741 22.3119 10.8098 22.0246 10.8098C21.8519 10.8098 21.4405 10.8268 21.1192 11.1231C20.8884 11.3368 20.7817 11.6268 20.7174 11.9049C20.6525 12.1882 20.5778 12.6981 21.0468 12.8879C21.1915 12.9501 21.4001 12.9671 21.5346 12.9671ZM21.5078 11.926C21.587 11.5756 21.6805 11.2815 21.9192 11.2815C22.1062 11.2815 22.1197 11.5003 22.0366 11.8519C22.0217 11.93 21.9534 12.2201 21.8611 12.3437C21.7966 12.4348 21.7203 12.4901 21.636 12.4901C21.6109 12.4901 21.4617 12.4901 21.4593 12.2685C21.4582 12.1591 21.4805 12.0474 21.5078 11.926ZM23.684 12.9221L23.7108 12.8948C23.7489 12.6931 23.7552 12.6456 23.8395 12.2372C23.8817 12.0435 23.9689 11.6178 24.0099 11.4662C24.0875 11.4302 24.1626 11.3949 24.2379 11.3949C24.4105 11.3949 24.3895 11.5465 24.3826 11.6068C24.3763 11.7084 24.313 12.0394 24.2469 12.3237L24.2059 12.5072C24.1746 12.6429 24.1404 12.7745 24.1102 12.909L24.1234 12.9358C24.4761 12.917 24.5792 12.917 24.8812 12.9221L24.9177 12.8948C24.9706 12.5796 24.9849 12.4952 25.0841 12.0366L25.1314 11.8257C25.2259 11.4131 25.2738 11.2041 25.2037 11.0337C25.1263 10.8427 24.9445 10.7966 24.781 10.7966C24.6726 10.7966 24.4738 10.8228 24.2971 10.91C24.2339 10.9431 24.1706 10.9812 24.1085 11.0194L24.1626 10.8098L24.1336 10.7743C23.7569 10.8508 23.6709 10.861 23.3232 10.91L23.2965 10.9294C23.2544 11.2645 23.2201 11.5163 23.0703 12.175C23.0132 12.4178 22.954 12.6629 22.8948 12.905L22.9107 12.9358C23.2679 12.917 23.3746 12.917 23.684 12.9221ZM26.2756 12.9357C26.2978 12.8275 26.4295 12.1859 26.4306 12.1859C26.4306 12.1859 26.5428 11.7152 26.5497 11.6981C26.5497 11.6981 26.585 11.6491 26.6203 11.6297H26.6722C27.1622 11.6297 27.7155 11.6297 28.1492 11.3106C28.4443 11.0918 28.6461 10.7687 28.7361 10.376C28.7594 10.2797 28.7767 10.1652 28.7767 10.0507C28.7767 9.9003 28.7465 9.7515 28.6592 9.63524C28.4381 9.32583 27.9977 9.32014 27.4893 9.3178C27.4877 9.3178 27.2387 9.32014 27.2387 9.32014C26.5879 9.32816 26.3269 9.32583 26.2197 9.3127C26.2107 9.36011 26.1936 9.44443 26.1936 9.44443C26.1936 9.44443 25.9605 10.5248 25.9605 10.5265C25.9605 10.5265 25.4026 12.8235 25.3764 12.9318C25.9446 12.9249 26.1775 12.9249 26.2756 12.9357ZM26.7075 11.0166C26.7075 11.0166 26.9554 9.93837 26.9542 9.94245L26.9622 9.88717L26.9657 9.84501L27.0648 9.85522C27.0648 9.85522 27.5759 9.89913 27.5879 9.90029C27.7896 9.97834 27.8728 10.1795 27.8147 10.4421C27.7618 10.6821 27.6061 10.8838 27.4061 10.9813C27.2414 11.0638 27.0397 11.0707 26.8318 11.0707H26.6973L26.7075 11.0166ZM28.2507 11.946C28.1852 12.2252 28.1099 12.7352 28.5766 12.9169C28.7254 12.9803 28.8587 12.9991 28.9942 12.9922C29.1373 12.9845 29.2699 12.9127 29.3928 12.8094C29.3817 12.8519 29.3706 12.8943 29.3595 12.9369L29.3806 12.9642C29.7163 12.9501 29.8205 12.9501 30.1841 12.9528L30.2171 12.9277C30.2702 12.6156 30.3202 12.3124 30.4582 11.7152C30.5255 11.4291 30.5926 11.1458 30.6616 10.8609L30.6508 10.8296C30.2753 10.8992 30.175 10.914 29.8138 10.9652L29.7863 10.9876C29.7827 11.0166 29.7789 11.0445 29.7754 11.0723C29.7192 10.9816 29.6378 10.9041 29.5122 10.8558C29.3516 10.7927 28.9744 10.8741 28.6501 11.1693C28.4222 11.3801 28.3128 11.669 28.2507 11.946ZM29.0393 11.9631C29.1197 11.6189 29.212 11.3278 29.4513 11.3278C29.6025 11.3278 29.6822 11.4674 29.666 11.7054C29.6531 11.7648 29.6393 11.8274 29.6228 11.8981C29.5989 12.0004 29.5729 12.1018 29.5477 12.2033C29.522 12.2728 29.4921 12.3382 29.4593 12.3819C29.3977 12.4691 29.2513 12.5232 29.1669 12.5232C29.143 12.5232 28.9954 12.5232 28.9903 12.3056C28.9891 12.1972 29.0114 12.0856 29.0393 11.9631ZM33.1575 10.8268L33.1285 10.7937C32.7569 10.869 32.6897 10.8809 32.3483 10.927L32.3232 10.9521C32.3221 10.9562 32.321 10.9625 32.3193 10.9681L32.3181 10.9625C32.064 11.5487 32.0714 11.4223 31.8646 11.8838C31.8634 11.8628 31.8634 11.8497 31.8622 11.8274L31.8105 10.8268L31.7779 10.7937C31.3887 10.869 31.3795 10.8809 31.0201 10.927L30.9921 10.9521C30.9882 10.9641 30.9882 10.9772 30.9858 10.9915L30.9882 10.9966C31.0331 11.2262 31.0223 11.175 31.0674 11.5374C31.0884 11.7152 31.1164 11.894 31.1374 12.0697C31.1728 12.3636 31.1927 12.5083 31.236 12.9569C30.9933 13.3575 30.9358 13.5091 30.7021 13.8606L30.7037 13.8641L30.5391 14.1244C30.5203 14.1518 30.5033 14.1706 30.4793 14.1786C30.4531 14.1916 30.4189 14.1939 30.3715 14.1939H30.2803L30.1448 14.6447L30.6097 14.6527C30.8827 14.6516 31.0542 14.5239 31.1466 14.3524L31.4389 13.8514H31.4342L31.465 13.8161C31.6617 13.3928 33.1575 10.8268 33.1575 10.8268ZM28.2507 16.7469H28.0534L28.7834 14.3325H29.0256L29.1024 14.0837L29.1099 14.3603C29.1008 14.5313 29.2353 14.6829 29.5887 14.6578H29.9973L30.1379 14.1929H29.9841C29.8957 14.1929 29.8547 14.1705 29.8598 14.1227L29.8524 13.8413H29.0957V13.8427C28.8511 13.8479 28.1205 13.8662 27.9726 13.9056C27.7936 13.9517 27.605 14.0874 27.605 14.0874L27.6791 13.8384H26.9713L26.8238 14.3325L26.0841 16.7838H25.9405L25.7998 17.2453H27.2095L27.1623 17.3992H27.8569L27.903 17.2453H28.0979L28.2507 16.7469ZM27.6723 14.823C27.5589 14.8544 27.348 14.9495 27.348 14.9495L27.5356 14.3325H28.0979L27.9623 14.7821C27.9623 14.7821 27.7885 14.7923 27.6723 14.823ZM27.6831 15.7046C27.6831 15.7046 27.5064 15.7268 27.3901 15.753C27.2756 15.7877 27.0609 15.8971 27.0609 15.8971L27.2546 15.255H27.8199L27.6831 15.7046ZM27.368 16.7526H26.8038L26.9674 16.2106H27.5297L27.368 16.7526ZM28.7265 15.255H29.5396L29.4227 15.6334H28.5988L28.4751 16.0471H29.196L28.6502 16.8157C28.6119 16.8722 28.5777 16.8922 28.5396 16.9081C28.5014 16.9275 28.4512 16.9502 28.3931 16.9502H28.1931L28.0557 17.4033H28.5788C28.8507 17.4033 29.0114 17.2796 29.13 17.1173L29.5043 16.6049L29.5847 17.1251C29.6017 17.2226 29.6717 17.2796 29.7192 17.3018C29.7715 17.3281 29.8256 17.3731 29.9021 17.3798C29.9841 17.3833 30.0433 17.3861 30.0827 17.3861H30.3397L30.4941 16.879H30.3927C30.3345 16.879 30.2343 16.8693 30.2172 16.851C30.2001 16.8289 30.2001 16.7947 30.1909 16.7428L30.1094 16.2214H29.7755L29.9219 16.0471H30.7442L30.8707 15.6334H30.1094L30.228 15.255H30.987L31.1278 14.7883H28.8649L28.7265 15.255ZM21.8588 16.8579L22.0486 16.2266H22.8286L22.9711 15.757H22.1904L22.3096 15.3684H23.0725L23.2139 14.9137H21.3049L21.1665 15.3684H21.6002L21.4845 15.757H21.0496L20.9055 16.2346H21.339L21.0861 17.0699C21.0519 17.1805 21.1021 17.2226 21.1339 17.274C21.1665 17.324 21.1994 17.3571 21.2735 17.376C21.35 17.393 21.4023 17.4032 21.4735 17.4032H22.3529L22.5096 16.883L22.1198 16.9366C22.0445 16.9366 21.836 16.9275 21.8588 16.8579ZM21.9483 13.8355L21.7506 14.1928C21.7083 14.2708 21.6702 14.3193 21.6359 14.3416C21.6057 14.3604 21.5459 14.3683 21.4593 14.3683H21.3561L21.2183 14.8253H21.5608C21.7255 14.8253 21.852 14.7649 21.9124 14.7347C21.9773 14.7 21.9944 14.7198 22.0445 14.6714L22.1602 14.5712H23.2298L23.3717 14.0953H22.5888L22.7255 13.8355H21.9483ZM23.5273 16.8671C23.5091 16.8409 23.5222 16.7946 23.5501 16.6983L23.8424 15.7307H24.8824C25.0339 15.7285 25.1433 15.7268 25.2145 15.7217C25.291 15.7137 25.3741 15.6864 25.4647 15.6374C25.5582 15.586 25.6061 15.5319 25.6465 15.4698C25.6915 15.4078 25.7639 15.2721 25.826 15.0629L26.1935 13.8384L25.1143 13.8447C25.1143 13.8447 24.782 13.8937 24.6357 13.9478C24.4881 14.0082 24.2771 14.1768 24.2771 14.1768L24.3746 13.8412H23.7079L22.7746 16.9366C22.7415 17.0568 22.7193 17.144 22.7142 17.1964C22.7124 17.2528 22.7854 17.3087 22.8326 17.3508C22.8885 17.393 22.9711 17.3861 23.0503 17.393C23.1336 17.3993 23.252 17.4032 23.4156 17.4032H23.9279L24.0851 16.8722L23.6265 16.9155C23.5775 16.9155 23.542 16.8893 23.5273 16.8671ZM24.031 15.0772H25.1233L25.0539 15.2948C25.0441 15.2999 25.0208 15.284 24.9096 15.2972H23.9638L24.031 15.0772ZM24.2498 14.3472H25.3514L25.2721 14.6094C25.2721 14.6094 24.753 14.6043 24.6698 14.6196C24.304 14.6829 24.0902 14.8784 24.0902 14.8784L24.2498 14.3472ZM25.0784 16.0237C25.0693 16.0562 25.055 16.0761 25.035 16.0909C25.0129 16.1052 24.977 16.1103 24.9234 16.1103H24.7678L24.777 15.8453H24.1296L24.1033 17.1411C24.1023 17.2346 24.1113 17.2887 24.1798 17.3321C24.2482 17.3862 24.459 17.393 24.7427 17.393H25.1484L25.2948 16.908L24.9417 16.9274L24.8242 16.9343C24.8082 16.9274 24.7929 16.9211 24.7758 16.9041C24.7609 16.8893 24.7358 16.8984 24.7399 16.8049L24.7427 16.4727L25.1131 16.4574C25.3131 16.4574 25.3986 16.3923 25.4715 16.3303C25.5411 16.271 25.5638 16.2027 25.5901 16.1103L25.6522 15.8163H25.1433L25.0784 16.0237Z" fill="#FEFEFE"/>
</svg>
