<svg width="46" height="26" viewBox="0 0 46 26" fill="none" xmlns="http://www.w3.org/2000/svg">
<rect x="0.75" y="0.75" width="44.5" height="24.5" rx="2.75" fill="white" stroke="#ACB4BA" stroke-width="0.5"/>
<path fill-rule="evenodd" clip-rule="evenodd" d="M15.1667 17.9211H12.455L10.4215 10.1634C10.325 9.80652 10.1201 9.49104 9.81863 9.34235C9.06633 8.96869 8.23735 8.67131 7.33301 8.52133V8.22266H11.7013C12.3042 8.22266 12.7564 8.67131 12.8318 9.19237L13.8868 14.7883L16.5972 8.22266H19.2336L15.1667 17.9211ZM20.7416 17.9211H18.1807L20.2895 8.22266H22.8505L20.7416 17.9211ZM26.1629 10.9104C26.2383 10.3881 26.6904 10.0894 27.218 10.0894C28.047 10.0144 28.95 10.1644 29.7036 10.5368L30.1558 8.44865C29.4021 8.14998 28.5732 8 27.8209 8C25.3352 8 23.5266 9.34338 23.5266 11.2078C23.5266 12.6262 24.8077 13.3709 25.7121 13.8196C26.6904 14.2669 27.0672 14.5656 26.9919 15.013C26.9919 15.684 26.2383 15.9827 25.486 15.9827C24.5816 15.9827 23.6773 15.759 22.8496 15.3853L22.3975 17.4748C23.3018 17.8471 24.2802 17.9971 25.1845 17.9971C27.9716 18.0708 29.7036 16.7287 29.7036 14.7143C29.7036 12.1775 26.1629 12.0288 26.1629 10.9104ZM38.667 17.9211L36.6336 8.22266H34.4494C33.9972 8.22266 33.5451 8.52133 33.3944 8.96869L29.6289 17.9211H32.2652L32.7915 16.504H36.0307L36.3321 17.9211H38.667ZM34.8253 10.835L35.5776 14.4901H33.4688L34.8253 10.835Z" fill="#172B85"/>
</svg>
