<svg width="46" height="26" viewBox="0 0 46 26" fill="none" xmlns="http://www.w3.org/2000/svg">
<rect x="0.75" y="0.75" width="44.5" height="24.5" rx="2.75" fill="white" stroke="#ACB4BA" stroke-width="0.5"/>
<path d="M40.6722 12.497C40.6722 10.444 39.2418 9 37.2364 9C34.6835 9 32.9724 10.8546 32.9724 13.503C32.9724 15.5697 34.4166 17 36.4561 17C38.3109 17 39.6935 16.1035 40.2615 14.6732H38.2014C37.9277 15.118 37.3459 15.3986 36.6341 15.3986C35.539 15.3986 34.8546 14.6732 34.793 13.6467H40.5559C40.6311 13.2566 40.6722 12.9213 40.6722 12.497ZM34.9504 12.2575C35.1352 11.3131 36.0523 10.5603 37.1611 10.5603C38.1193 10.5603 38.8448 11.2583 38.8448 12.2575H34.9504Z" fill="#2E4369"/>
<path d="M27.4357 16.8152L27.8053 14.8443C28.9346 15.0701 29.1057 14.4337 29.4 12.9007L29.5437 12.1411C29.9544 9.99909 30.7825 8.93151 33.1506 9.21894L32.781 11.1899C31.6517 10.964 31.4533 11.8195 31.2 13.1471L31.0563 13.9067C30.6456 16.0761 29.7901 17.1026 27.4357 16.8152Z" fill="#2E4369"/>
<path d="M24.6707 16.8223L26.0669 9.18498H27.908L26.5186 16.8223H24.6707Z" fill="#2E4369"/>
<path d="M14.1231 9.18498H15.9094L16.4912 14.7076L18.8319 9.18498H20.6046L21.2274 14.7624L23.486 9.18498H25.2655L22.0282 16.8223H20.0023L19.3452 11.5665L17.1072 16.8223H15.1497L14.1231 9.18498Z" fill="#2E4369"/>
<path d="M7.44984 11.2102L5.32812 13.2358H8.93504L9.31148 12.353H7.48406L8.62705 11.2102L7.96316 10.0673H11.0636L8.20271 16.8218H9.27726L12.5146 9.1845H6.25894L7.44984 11.2102Z" fill="#00B9FF"/>
</svg>
